<mxfile host="app.diagrams.net" modified="2024-05-13T01:18:24.358Z" agent="Mozilla/5.0 (Windows NT 10.0; Win64; x64) AppleWebKit/537.36 (KHTML, like Gecko) Chrome/124.0.0.0 Safari/537.36" etag="JaStLbKMihKjDkz4eWVI" version="24.4.0" type="github">
  <diagram id="nU6mP-ZeDQgpdSgDiq36" name="EXERCISE-7">
    <mxGraphModel dx="1120" dy="434" grid="1" gridSize="10" guides="1" tooltips="1" connect="1" arrows="1" fold="1" page="1" pageScale="1" pageWidth="827" pageHeight="1169" math="0" shadow="0">
      <root>
        <mxCell id="0" />
        <mxCell id="1" parent="0" />
        <mxCell id="63OMAtHjgTIR3Vg8AF7o-4" value="" style="edgeStyle=orthogonalEdgeStyle;rounded=0;orthogonalLoop=1;jettySize=auto;html=1;" parent="1" source="En0MAt0X77-UXyqvX-jf-1" target="63OMAtHjgTIR3Vg8AF7o-3" edge="1">
          <mxGeometry relative="1" as="geometry" />
        </mxCell>
        <mxCell id="En0MAt0X77-UXyqvX-jf-1" value="INICIO" style="rounded=1;whiteSpace=wrap;html=1;" parent="1" vertex="1">
          <mxGeometry x="364" y="40" width="100" height="40" as="geometry" />
        </mxCell>
        <mxCell id="63OMAtHjgTIR3Vg8AF7o-6" value="" style="edgeStyle=orthogonalEdgeStyle;rounded=0;orthogonalLoop=1;jettySize=auto;html=1;" parent="1" source="63OMAtHjgTIR3Vg8AF7o-3" target="63OMAtHjgTIR3Vg8AF7o-5" edge="1">
          <mxGeometry relative="1" as="geometry" />
        </mxCell>
        <mxCell id="63OMAtHjgTIR3Vg8AF7o-3" value="r" style="shape=parallelogram;perimeter=parallelogramPerimeter;whiteSpace=wrap;html=1;fixedSize=1;" parent="1" vertex="1">
          <mxGeometry x="364" y="130" width="100" height="40" as="geometry" />
        </mxCell>
        <mxCell id="WJP9CAo-6AxGZUG-Jz_M-2" value="" style="edgeStyle=orthogonalEdgeStyle;rounded=0;orthogonalLoop=1;jettySize=auto;html=1;" parent="1" source="63OMAtHjgTIR3Vg8AF7o-5" target="WJP9CAo-6AxGZUG-Jz_M-1" edge="1">
          <mxGeometry relative="1" as="geometry" />
        </mxCell>
        <mxCell id="WJP9CAo-6AxGZUG-Jz_M-4" value="" style="edgeStyle=orthogonalEdgeStyle;rounded=0;orthogonalLoop=1;jettySize=auto;html=1;" parent="1" source="63OMAtHjgTIR3Vg8AF7o-5" target="WJP9CAo-6AxGZUG-Jz_M-3" edge="1">
          <mxGeometry relative="1" as="geometry" />
        </mxCell>
        <mxCell id="63OMAtHjgTIR3Vg8AF7o-5" value="r&amp;gt;=0 ?" style="rhombus;whiteSpace=wrap;html=1;" parent="1" vertex="1">
          <mxGeometry x="374" y="230" width="80" height="80" as="geometry" />
        </mxCell>
        <mxCell id="WJP9CAo-6AxGZUG-Jz_M-10" value="" style="edgeStyle=orthogonalEdgeStyle;rounded=0;orthogonalLoop=1;jettySize=auto;html=1;" parent="1" source="WJP9CAo-6AxGZUG-Jz_M-1" target="WJP9CAo-6AxGZUG-Jz_M-9" edge="1">
          <mxGeometry relative="1" as="geometry" />
        </mxCell>
        <mxCell id="WJP9CAo-6AxGZUG-Jz_M-1" value="4*3.14*(r*r)" style="shape=parallelogram;perimeter=parallelogramPerimeter;whiteSpace=wrap;html=1;fixedSize=1;" parent="1" vertex="1">
          <mxGeometry x="510" y="250" width="110" height="40" as="geometry" />
        </mxCell>
        <mxCell id="WJP9CAo-6AxGZUG-Jz_M-6" value="" style="edgeStyle=orthogonalEdgeStyle;rounded=0;orthogonalLoop=1;jettySize=auto;html=1;" parent="1" source="WJP9CAo-6AxGZUG-Jz_M-3" target="WJP9CAo-6AxGZUG-Jz_M-5" edge="1">
          <mxGeometry relative="1" as="geometry" />
        </mxCell>
        <mxCell id="WJP9CAo-6AxGZUG-Jz_M-8" value="" style="edgeStyle=orthogonalEdgeStyle;rounded=0;orthogonalLoop=1;jettySize=auto;html=1;" parent="1" source="WJP9CAo-6AxGZUG-Jz_M-3" target="WJP9CAo-6AxGZUG-Jz_M-7" edge="1">
          <mxGeometry relative="1" as="geometry" />
        </mxCell>
        <mxCell id="WJP9CAo-6AxGZUG-Jz_M-3" value="r &amp;lt; 0 ?" style="rhombus;whiteSpace=wrap;html=1;" parent="1" vertex="1">
          <mxGeometry x="374" y="350" width="80" height="80" as="geometry" />
        </mxCell>
        <mxCell id="WJP9CAo-6AxGZUG-Jz_M-12" value="" style="edgeStyle=orthogonalEdgeStyle;rounded=0;orthogonalLoop=1;jettySize=auto;html=1;" parent="1" source="WJP9CAo-6AxGZUG-Jz_M-5" target="WJP9CAo-6AxGZUG-Jz_M-11" edge="1">
          <mxGeometry relative="1" as="geometry" />
        </mxCell>
        <mxCell id="WJP9CAo-6AxGZUG-Jz_M-5" value="Error: Radius cannot be negative" style="shape=parallelogram;perimeter=parallelogramPerimeter;whiteSpace=wrap;html=1;fixedSize=1;" parent="1" vertex="1">
          <mxGeometry x="510" y="365" width="166" height="50" as="geometry" />
        </mxCell>
        <mxCell id="WJP9CAo-6AxGZUG-Jz_M-7" value="FIN" style="rounded=1;whiteSpace=wrap;html=1;" parent="1" vertex="1">
          <mxGeometry x="366" y="500" width="96" height="40" as="geometry" />
        </mxCell>
        <mxCell id="WJP9CAo-6AxGZUG-Jz_M-9" value="FIN" style="rounded=1;whiteSpace=wrap;html=1;" parent="1" vertex="1">
          <mxGeometry x="700" y="250" width="95" height="40" as="geometry" />
        </mxCell>
        <mxCell id="WJP9CAo-6AxGZUG-Jz_M-11" value="FIN" style="rounded=1;whiteSpace=wrap;html=1;" parent="1" vertex="1">
          <mxGeometry x="730" y="370" width="89" height="40" as="geometry" />
        </mxCell>
        <mxCell id="WJP9CAo-6AxGZUG-Jz_M-13" value="SI" style="text;strokeColor=none;align=center;fillColor=none;html=1;verticalAlign=middle;whiteSpace=wrap;rounded=0;" parent="1" vertex="1">
          <mxGeometry x="454" y="240" width="60" height="30" as="geometry" />
        </mxCell>
        <mxCell id="WJP9CAo-6AxGZUG-Jz_M-14" value="SI" style="text;strokeColor=none;align=center;fillColor=none;html=1;verticalAlign=middle;whiteSpace=wrap;rounded=0;" parent="1" vertex="1">
          <mxGeometry x="454" y="360" width="60" height="30" as="geometry" />
        </mxCell>
        <mxCell id="WJP9CAo-6AxGZUG-Jz_M-15" value="NO" style="text;strokeColor=none;align=center;fillColor=none;html=1;verticalAlign=middle;whiteSpace=wrap;rounded=0;" parent="1" vertex="1">
          <mxGeometry x="354" y="310" width="60" height="30" as="geometry" />
        </mxCell>
        <mxCell id="WJP9CAo-6AxGZUG-Jz_M-16" value="NO" style="text;strokeColor=none;align=center;fillColor=none;html=1;verticalAlign=middle;whiteSpace=wrap;rounded=0;" parent="1" vertex="1">
          <mxGeometry x="354" y="450" width="60" height="30" as="geometry" />
        </mxCell>
      </root>
    </mxGraphModel>
  </diagram>
</mxfile>
